<?xml version="1.0" encoding="utf-8"?>
<!-- Generator: Adobe Illustrator 19.0.0, SVG Export Plug-In . SVG Version: 6.00 Build 0)  -->
<svg version="1.1" id="Capa_1" xmlns="http://www.w3.org/2000/svg" xmlns:xlink="http://www.w3.org/1999/xlink" x="0px" y="0px"
	 viewBox="-464 266.2 29.8 29.8" style="enable-background:new -464 266.2 29.8 29.8;" xml:space="preserve">
<style type="text/css">
	.st0{fill:#929BA4;}
</style>
<path class="st0" d="M-435.5,290.7l-5.3-5.3c-0.5-0.5-1.3-0.4-2.1,0l-2.4-2.4c1.3-1.7,2-3.7,2-6c0-5.5-4.4-9.9-9.9-9.9
	s-9.9,4.4-9.9,9.9s4.4,9.9,9.9,9.9c2.3,0,4.3-0.8,6-2l2.4,2.4c-0.4,0.8-0.5,1.7,0,2.2l5.3,5.3c0.7,0.7,2.1,0.3,3.2-0.8
	C-435.2,292.9-434.9,291.4-435.5,290.7L-435.5,290.7z M-453.3,284.6c-4.2,0-7.6-3.4-7.6-7.6s3.4-7.6,7.6-7.6s7.6,3.4,7.6,7.6
	C-445.7,281.2-449.1,284.6-453.3,284.6L-453.3,284.6z"/>
</svg>
